# xmcd
#
# Track frame offsets: 
#        150
#        20318
#        37759
#        55947
#        76925
#        95778
#        110737
#        125210
#        146346
#        164701
#        183885
#        203400
#        222817
#        246062
#        261476
#
# Disc length: 3719 seconds
#
# Revision: 1
# Processed by: cddbd v1.5.2PL0 Copyright (c) Steve Scherf et al.
# Submitted via: ExactAudioCopy v1.0b3
#
DISCID=d20e850f
DTITLE=群星 - DTS ES 正品 测试极品Ⅲ
DYEAR=2011
DGENRE=Acid
TTITLE0=灯光
TTITLE1=一千零一夜
TTITLE2=情网
TTITLE3=垄上行
TTITLE4=绿岛小夜曲
TTITLE5=母亲教我的歌
TTITLE6=童年
TTITLE7=念故乡
TTITLE8=大约在冬季
TTITLE9=小白船
TTITLE10=花心
TTITLE11=纤夫的爱
TTITLE12=十送红军
TTITLE13=洗衣歌
TTITLE14=二月里来
EXTD=
EXTT0=
EXTT1=
EXTT2=
EXTT3=
EXTT4=
EXTT5=
EXTT6=
EXTT7=
EXTT8=
EXTT9=
EXTT10=
EXTT11=
EXTT12=
EXTT13=
EXTT14=
PLAYORDER=
